<svg xmlns="http://www.w3.org/2000/svg" viewBox="0 0 32 32">
  <!-- Ancient Scroll pixel art -->
  <rect x="8" y="8" width="4" height="4" fill="#8B4513"/>
  <rect x="20" y="8" width="4" height="4" fill="#8B4513"/>
  <rect x="8" y="12" width="4" height="4" fill="#F5DEB3"/>
  <rect x="12" y="12" width="4" height="4" fill="#F5DEB3"/>
  <rect x="16" y="12" width="4" height="4" fill="#F5DEB3"/>
  <rect x="20" y="12" width="4" height="4" fill="#F5DEB3"/>
  <rect x="8" y="16" width="4" height="4" fill="#F5DEB3"/>
  <rect x="12" y="16" width="2" height="1" fill="#8B4513"/>
  <rect x="15" y="16" width="4" height="1" fill="#8B4513"/>
  <rect x="20" y="16" width="4" height="4" fill="#F5DEB3"/>
  <rect x="8" y="20" width="4" height="4" fill="#F5DEB3"/>
  <rect x="12" y="20" width="6" height="1" fill="#8B4513"/>
  <rect x="20" y="20" width="4" height="4" fill="#F5DEB3"/>
  <rect x="8" y="24" width="4" height="4" fill="#8B4513"/>
  <rect x="20" y="24" width="4" height="4" fill="#8B4513"/>
</svg>
