<svg xmlns="http://www.w3.org/2000/svg" viewBox="0 0 32 32">
  <!-- Bottled Scream pixel art -->
  <rect x="12" y="6" width="4" height="4" fill="#B0C4DE"/>
  <rect x="16" y="6" width="4" height="4" fill="#B0C4DE"/>
  <rect x="12" y="10" width="4" height="4" fill="#B0C4DE"/>
  <rect x="16" y="10" width="4" height="4" fill="#B0C4DE"/>
  <rect x="8" y="14" width="4" height="4" fill="#B0C4DE"/>
  <rect x="12" y="14" width="4" height="4" fill="#4B0082"/>
  <rect x="16" y="14" width="4" height="4" fill="#4B0082"/>
  <rect x="20" y="14" width="4" height="4" fill="#B0C4DE"/>
  <rect x="8" y="18" width="4" height="4" fill="#B0C4DE"/>
  <rect x="12" y="18" width="4" height="4" fill="#6A0DAD"/>
  <rect x="16" y="18" width="4" height="4" fill="#6A0DAD"/>
  <rect x="20" y="18" width="4" height="4" fill="#B0C4DE"/>
  <rect x="8" y="22" width="4" height="4" fill="#B0C4DE"/>
  <rect x="12" y="22" width="4" height="4" fill="#4B0082"/>
  <rect x="16" y="22" width="4" height="4" fill="#4B0082"/>
  <rect x="20" y="22" width="4" height="4" fill="#B0C4DE"/>
  <rect x="8" y="26" width="4" height="4" fill="#B0C4DE"/>
  <rect x="20" y="26" width="4" height="4" fill="#B0C4DE"/>
</svg>
