<svg xmlns="http://www.w3.org/2000/svg" viewBox="0 0 32 32">
  <!-- Mango pixel art -->
  <rect x="12" y="6" width="4" height="4" fill="#228B22"/>
  <rect x="8" y="10" width="4" height="4" fill="#FF8243"/>
  <rect x="12" y="10" width="4" height="4" fill="#FF8243"/>
  <rect x="16" y="10" width="4" height="4" fill="#FF8243"/>
  <rect x="4" y="14" width="4" height="4" fill="#FF8243"/>
  <rect x="8" y="14" width="4" height="4" fill="#FFB347"/>
  <rect x="12" y="14" width="4" height="4" fill="#FFB347"/>
  <rect x="16" y="14" width="4" height="4" fill="#FF8243"/>
  <rect x="20" y="14" width="4" height="4" fill="#FF8243"/>
  <rect x="4" y="18" width="4" height="4" fill="#FF8243"/>
  <rect x="8" y="18" width="4" height="4" fill="#FFB347"/>
  <rect x="12" y="18" width="4" height="4" fill="#FFB347"/>
  <rect x="16" y="18" width="4" height="4" fill="#FF8243"/>
  <rect x="20" y="18" width="4" height="4" fill="#FF8243"/>
  <rect x="8" y="22" width="4" height="4" fill="#FF8243"/>
  <rect x="12" y="22" width="4" height="4" fill="#FF8243"/>
  <rect x="16" y="22" width="4" height="4" fill="#FF8243"/>
</svg>
