<svg xmlns="http://www.w3.org/2000/svg" viewBox="0 0 64 64" style="image-rendering: pixelated; image-rendering: crisp-edges;">
  <rect x="16" y="16" width="8" height="8" fill="#CD853F"/>
  <rect x="16" y="24" width="8" height="8" fill="#CD853F"/>
  <rect x="16" y="32" width="8" height="8" fill="#CD853F"/>
  <rect x="16" y="40" width="8" height="8" fill="#CD853F"/>
  <rect x="24" y="16" width="8" height="8" fill="#CD853F"/>
  <rect x="24" y="24" width="8" height="8" fill="#CD853F"/>
  <rect x="24" y="40" width="8" height="8" fill="#CD853F"/>
  <rect x="32" y="16" width="8" height="8" fill="#CD853F"/>
  <rect x="32" y="32" width="8" height="8" fill="#CD853F"/>
  <rect x="32" y="40" width="8" height="8" fill="#CD853F"/>
  <rect x="40" y="16" width="8" height="8" fill="#CD853F"/>
  <rect x="40" y="24" width="8" height="8" fill="#CD853F"/>
  <rect x="40" y="32" width="8" height="8" fill="#CD853F"/>
  <rect x="40" y="40" width="8" height="8" fill="#CD853F"/>
  <rect x="48" y="24" width="8" height="8" fill="#CD853F"/>
  <rect x="48" y="32" width="8" height="8" fill="#CD853F"/>
  <rect x="2" y="2" width="60" height="60" fill="none" stroke="#CD853F" stroke-width="1" opacity="0.2"/>
</svg>