<svg xmlns="http://www.w3.org/2000/svg" viewBox="0 0 32 32">
  <!-- Rubber Duck pixel art -->
  <rect x="12" y="8" width="4" height="4" fill="#FFD700"/>
  <rect x="16" y="8" width="4" height="4" fill="#FFD700"/>
  <rect x="8" y="12" width="4" height="4" fill="#FFD700"/>
  <rect x="12" y="12" width="4" height="4" fill="#000000"/>
  <rect x="16" y="12" width="4" height="4" fill="#FFD700"/>
  <rect x="20" y="12" width="4" height="4" fill="#FF8C00"/>
  <rect x="8" y="16" width="4" height="4" fill="#FFD700"/>
  <rect x="12" y="16" width="4" height="4" fill="#FFD700"/>
  <rect x="16" y="16" width="4" height="4" fill="#FFD700"/>
  <rect x="20" y="16" width="4" height="4" fill="#FFD700"/>
  <rect x="24" y="16" width="4" height="4" fill="#FF8C00"/>
  <rect x="8" y="20" width="4" height="4" fill="#FFD700"/>
  <rect x="12" y="20" width="4" height="4" fill="#FFD700"/>
  <rect x="16" y="20" width="4" height="4" fill="#FFD700"/>
  <rect x="20" y="20" width="4" height="4" fill="#FFD700"/>
</svg>
