<svg xmlns="http://www.w3.org/2000/svg" viewBox="0 0 32 32">
  <!-- Vintage Telephone pixel art -->
  <rect x="8" y="8" width="4" height="4" fill="#2F4F4F"/>
  <rect x="12" y="8" width="4" height="4" fill="#2F4F4F"/>
  <rect x="16" y="8" width="4" height="4" fill="#2F4F4F"/>
  <rect x="20" y="8" width="4" height="4" fill="#2F4F4F"/>
  <rect x="8" y="12" width="4" height="4" fill="#2F4F4F"/>
  <rect x="12" y="12" width="4" height="4" fill="#708090"/>
  <rect x="16" y="12" width="4" height="4" fill="#708090"/>
  <rect x="20" y="12" width="4" height="4" fill="#2F4F4F"/>
  <rect x="8" y="16" width="4" height="4" fill="#2F4F4F"/>
  <rect x="20" y="16" width="4" height="4" fill="#2F4F4F"/>
  <rect x="8" y="20" width="4" height="4" fill="#2F4F4F"/>
  <rect x="12" y="20" width="4" height="4" fill="#2F4F4F"/>
  <rect x="16" y="20" width="4" height="4" fill="#2F4F4F"/>
  <rect x="20" y="20" width="4" height="4" fill="#2F4F4F"/>
  <rect x="12" y="24" width="4" height="4" fill="#2F4F4F"/>
  <rect x="16" y="24" width="4" height="4" fill="#2F4F4F"/>
</svg>
